HIERARCHY
ROOT Hips
{
	OFFSET 0.00000 0.00000 0.00000
	CHANNELS 6 Xposition Yposition Zposition Zrotation Yrotation Xrotation 
	JOINT LHipJoint
	{
		OFFSET 0 0 0
		CHANNELS 3 Zrotation Yrotation Xrotation
		JOINT LeftHip
		{
			OFFSET 1.84395 -1.68683 0.74144
			CHANNELS 3 Zrotation Yrotation Xrotation
			JOINT LeftKnee
			{
				OFFSET 2.27037 -6.23779 0.00000
				CHANNELS 3 Zrotation Yrotation Xrotation
				JOINT LeftAnkle
				{
					OFFSET 2.56918 -7.05877 0.00000
					CHANNELS 3 Zrotation Yrotation Xrotation
					JOINT LeftToe
					{
						OFFSET 0.22276 -0.61202 1.71784
						CHANNELS 3 Zrotation Yrotation Xrotation
						End Site
						{
							OFFSET 0.00000 -0.00000 0.91613
						}
					}
				}
			}
		}
	}
	JOINT RHipJoint
	{
		OFFSET 0 0 0
		CHANNELS 3 Zrotation Yrotation Xrotation
		JOINT RightHip
		{
			OFFSET -1.76833 -1.68684 0.74144
			CHANNELS 3 Zrotation Yrotation Xrotation
			JOINT RightKnee
			{
				OFFSET -2.49360 -6.85110 0.00000
				CHANNELS 3 Zrotation Yrotation Xrotation
				JOINT RightAnkle
				{
					OFFSET -2.55538 -7.02085 0.00000
					CHANNELS 3 Zrotation Yrotation Xrotation
					JOINT RightToe
					{
						OFFSET -0.21516 -0.59115 1.68050
						CHANNELS 3 Zrotation Yrotation Xrotation
						End Site
						{
							OFFSET -0.00000 -0.00000 0.89604
						}
					}
				}
			}
		}
	}
	JOINT lowerback
	{
		OFFSET 0 0 0
		CHANNELS 3 Zrotation Yrotation Xrotation
		JOINT Chest
		{
			OFFSET 0.06382 1.72312 -0.19613
			CHANNELS 3 Zrotation Yrotation Xrotation
			JOINT Chest2
			{
				OFFSET -0.00055 1.73507 0.23859
				CHANNELS 3 Zrotation Yrotation Xrotation
				JOINT lowerneck
				{
					OFFSET 0 0 0
					CHANNELS 3 Zrotation Yrotation Xrotation
					JOINT Neck
					{
						OFFSET 0.03638 1.65562 0.09633
						CHANNELS 3 Zrotation Yrotation Xrotation
						JOINT Head
						{
							OFFSET 0.06388 1.62807 -0.32386
							CHANNELS 3 Zrotation Yrotation Xrotation
							End Site
							{
								OFFSET 0.00995 1.67644 -0.12021
							}
						}
					}
				}
				JOINT LeftCollar
				{
					OFFSET 0 0 0
					CHANNELS 3 Zrotation Yrotation Xrotation
					JOINT LeftShoulder
					{
						OFFSET 3.09648 1.42991 0.28122
CHANNELS 3 Zrotation Xrotation Yrotation
						JOINT LeftElbow
						{
OFFSET 0 -5.118780 -0.000000
CHANNELS 3 Zrotation Xrotation Yrotation
							JOINT LeftWrist
							{
OFFSET 0 -3.599710 0.000000
CHANNELS 3 Zrotation Xrotation Yrotation
								JOINT lhand
								{
									OFFSET 0 0 0
CHANNELS 3 Zrotation Xrotation Yrotation
									JOINT LFingers
									{
OFFSET 0 -0.628770 0.000000
CHANNELS 3 Zrotation Xrotation Yrotation
										End Site
										{
OFFSET 0 -0.506930 0.000000
										}
									}
								}
								JOINT LThumb
								{
OFFSET 0 0.000000 0.000000
CHANNELS 3 Zrotation Xrotation Yrotation
									End Site
									{
OFFSET 0 -0.514670 0.514670
									}
								}
							}
						}
					}
				}
				JOINT RightCollar
				{
					OFFSET 0 0 0
					CHANNELS 3 Zrotation Yrotation Xrotation
					JOINT RightShoulder
					{
						OFFSET -3.33565 1.14597 0.05047
CHANNELS 3 Zrotation Xrotation Yrotation
						JOINT RightElbow
						{
OFFSET 0 -5.490200 0.000000
CHANNELS 3 Zrotation Xrotation Yrotation
							JOINT RightWrist
							{
OFFSET 0 -3.206590 -0.000000
CHANNELS 3 Zrotation Xrotation Yrotation
								JOINT rhand
								{
									OFFSET 0 0 0
CHANNELS 3 Zrotation Xrotation Yrotation
									JOINT RFingers
									{
OFFSET 0 -0.691880 0.000000
CHANNELS 3 Zrotation Xrotation Yrotation
										End Site
										{
OFFSET 0 -0.557810 0.000000
										}
									}
								}
								JOINT RThumb
								{
OFFSET 0 0.000000 0.000000
CHANNELS 3 Zrotation Xrotation Yrotation
									End Site
									{
OFFSET 0 -0.566330 0.566330
									}
								}
							}
						}
					}
				}
			}
		}
	}
}
MOTION
Frames: 11
Frame Time: 0.008333333333333333
0.108550 18.621722 8.823999 -7.493106 -13.274073 17.733857 0.000000 0.000000 0.000000 -19.201942 -59.865585 13.303607 1.324114 7.287403 20.569750 19.393439 24.402371 -88.733730 4.069768 -12.252409 -36.631203 0.000000 0.000000 0.000000 0.000000 0.000000 0.000000 0.000000 0.000000 0.000000 0.000000 0.000000 0.000000 0.000000 0.000000 0.000000 4.196918 -0.943274 4.020390 5.032513 -0.756584 -3.167885 2.961489 -0.440521 -5.549197 -12.584300 -10.316730 0.114946 12.401290 -15.357305 15.148618 4.932717 -7.525604 6.504227 0.000000 0.000000 0.000000 19.841336 15.860363 -55.846268 160.348495 -30.220136 114.645117 -62.128930 -36.591986 6.862266 0.000000 0.000000 0.000000 -7.125000 0.000000 0.000000 -45.087135 -15.476673 -84.019244 0.000000 0.000000 0.000000 -30.833636 6.489668 45.072771 -161.873926 -28.318226 -115.391117 80.026421 -107.639458 20.594724 0.000000 0.000000 0.000000 7.125000 0.000000 0.000000 49.222693 25.848884 41.797626
0.097948 18.571194 8.844145 -8.695905 -13.849613 17.830217 0.000000 0.000000 0.000000 -26.141311 -65.002757 22.839530 1.391454 7.463014 21.094663 23.300997 22.118728 -97.199730 3.329970 -11.210108 -32.992857 0.000000 0.000000 0.000000 0.000000 0.000000 0.000000 0.000000 0.000000 0.000000 0.000000 0.000000 0.000000 0.000000 0.000000 0.000000 5.132701 -0.665875 4.211521 5.179942 -0.277350 -3.509008 2.565686 -0.244771 -6.039919 -12.880531 -10.059103 1.046306 13.039779 -15.170633 14.892491 5.260916 -7.463604 6.307867 0.000000 0.000000 0.000000 -4.050680 16.557274 -47.322221 160.301191 -30.277556 114.621252 -71.164573 -40.789871 2.821719 0.000000 0.000000 0.000000 -7.125000 0.000000 0.000000 -55.547061 -34.622976 -106.496506 0.000000 0.000000 0.000000 -3.754139 5.415047 33.525918 -162.222835 -27.870955 -115.555388 82.119139 -115.810024 22.913657 0.000000 0.000000 0.000000 7.125000 0.000000 0.000000 54.615676 33.178024 31.358222
0.119845 18.567726 8.814107 -8.711906 -13.798693 17.571525 0.000000 0.000000 0.000000 -28.810383 -66.194107 25.961891 1.392933 7.466742 21.105727 23.973791 21.097651 -98.823534 3.094982 -10.846770 -31.765417 0.000000 0.000000 0.000000 0.000000 0.000000 0.000000 0.000000 0.000000 0.000000 0.000000 0.000000 0.000000 0.000000 0.000000 0.000000 4.818056 -0.580838 4.907554 5.226759 -0.106004 -3.730272 2.795078 -0.151448 -6.676187 -12.933708 -9.996690 0.364247 13.307613 -15.243869 16.382424 5.308058 -7.439941 6.934736 0.000000 0.000000 0.000000 -7.338838 11.860174 -49.974156 158.921181 -31.920281 113.908472 -71.875398 -52.251343 1.226079 0.000000 0.000000 0.000000 -7.125000 0.000000 0.000000 -54.402247 -33.719744 -104.181231 0.000000 0.000000 0.000000 -4.866148 5.003945 40.595727 -161.246576 -29.111117 -115.089710 79.847550 -113.097349 25.115728 0.000000 0.000000 0.000000 7.125000 0.000000 0.000000 59.399546 37.415225 23.400832
0.070832 18.610677 8.783982 -7.648695 -12.839438 17.899558 0.000000 0.000000 0.000000 -20.764586 -62.413870 15.963589 1.310701 7.252057 20.464180 20.731925 23.692400 -91.547807 3.792457 -11.878977 -35.305151 0.000000 0.000000 0.000000 0.000000 0.000000 0.000000 0.000000 0.000000 0.000000 0.000000 0.000000 0.000000 0.000000 0.000000 0.000000 3.520918 -0.965444 3.868482 5.137874 -0.822523 -3.389434 3.459991 -0.445363 -5.681458 -12.813193 -10.170041 0.036671 12.715316 -15.197414 15.199072 5.082575 -7.441299 6.553758 0.000000 0.000000 0.000000 11.059198 11.095385 -54.943930 159.433631 -31.318519 114.177016 -69.243297 -38.155492 4.252419 0.000000 0.000000 0.000000 -7.125000 0.000000 0.000000 -53.423411 -32.146306 -103.648919 0.000000 0.000000 0.000000 -25.549615 2.673095 47.927019 -160.983493 -29.439155 -114.961020 80.039091 -106.252132 20.086640 0.000000 0.000000 0.000000 7.125000 0.000000 0.000000 48.376972 24.340700 43.576906
0.055648 18.617552 8.782871 -8.744186 -12.453073 18.010592 0.000000 0.000000 0.000000 -20.160109 -62.795533 16.618777 1.355260 7.369316 20.814140 20.971016 23.530555 -92.059199 3.844453 -11.950449 -35.557063 0.000000 0.000000 0.000000 0.000000 0.000000 0.000000 0.000000 0.000000 0.000000 0.000000 0.000000 0.000000 0.000000 0.000000 0.000000 4.895191 -1.004504 4.692261 5.061326 -0.716624 -3.412715 2.624661 -0.454075 -6.208091 -12.715740 -10.462094 0.285857 13.470877 -15.668452 14.418968 5.277077 -7.647093 6.382087 0.000000 0.000000 0.000000 18.482517 15.787978 -54.018131 160.350029 -30.218288 114.645940 -67.954137 -39.262227 4.596981 0.000000 0.000000 0.000000 -7.125000 0.000000 0.000000 -51.379168 -29.187440 -99.884873 0.000000 0.000000 0.000000 -29.086818 7.138780 42.860474 -161.340082 -28.993484 -115.134847 81.750133 -113.343428 20.827618 0.000000 0.000000 0.000000 7.125000 0.000000 0.000000 50.089647 27.385601 39.656841
0.062718 18.599343 8.806663 -8.182791 -13.155828 18.407303 0.000000 0.000000 0.000000 -21.465354 -63.750830 17.325937 1.353338 7.364309 20.799228 21.772197 22.906933 -93.802197 3.590266 -11.594007 -34.310602 0.000000 0.000000 0.000000 0.000000 0.000000 0.000000 0.000000 0.000000 0.000000 0.000000 0.000000 0.000000 0.000000 0.000000 0.000000 4.296447 -0.750475 3.982890 4.805344 -0.489622 -3.405638 2.649090 -0.319302 -5.786122 -12.947054 -11.074326 -0.333281 13.677374 -16.490833 14.484251 5.244180 -8.013549 6.665874 0.000000 0.000000 0.000000 0.161485 18.482546 -49.782751 159.817930 -30.860870 114.375396 -71.522067 -42.613650 2.808001 0.000000 0.000000 0.000000 -7.125000 0.000000 0.000000 -56.210355 -35.412546 -107.573938 0.000000 0.000000 0.000000 -9.523813 8.100497 35.986515 -162.587209 -27.398088 -115.724112 80.985297 -111.342240 23.997452 0.000000 0.000000 0.000000 7.125000 0.000000 0.000000 57.114843 35.352941 27.148093
0.082048 18.563829 8.806157 -8.874450 -13.672375 18.154024 0.000000 0.000000 0.000000 -29.380363 -67.521630 27.024948 1.403545 7.493926 21.187101 24.557874 20.558868 -100.228643 2.964956 -10.637537 -31.067511 0.000000 0.000000 0.000000 0.000000 0.000000 0.000000 0.000000 0.000000 0.000000 0.000000 0.000000 0.000000 0.000000 0.000000 0.000000 5.192398 -0.303304 5.184400 4.709273 0.295328 -3.768183 1.999998 0.014070 -6.876585 -13.130729 -11.167233 -0.280152 14.433735 -16.863714 15.277586 5.474045 -8.151344 7.046329 0.000000 0.000000 0.000000 -11.626929 14.865890 -48.200030 157.427441 -33.616908 113.099321 -76.800079 -57.178399 0.606100 0.000000 0.000000 0.000000 -7.125000 0.000000 0.000000 -68.350745 -31.552188 -93.215728 0.000000 0.000000 0.000000 -0.281018 7.419441 38.371286 -160.047230 -30.584752 -114.492338 82.069249 -118.231706 22.189663 0.000000 0.000000 0.000000 7.125000 0.000000 0.000000 52.936912 31.281547 34.310212
0.076297 18.592369 8.808987 -8.143120 -13.596768 18.380496 0.000000 0.000000 0.000000 -24.029779 -65.042018 20.274002 1.340891 7.331542 20.701505 22.730030 22.056939 -95.960911 3.344495 -11.230416 -33.063779 0.000000 0.000000 0.000000 0.000000 0.000000 0.000000 0.000000 0.000000 0.000000 0.000000 0.000000 0.000000 0.000000 0.000000 0.000000 4.214893 -0.299738 4.137683 4.859499 0.146198 -3.747595 2.705050 -0.004559 -6.246947 -13.318847 -11.230662 -0.223364 14.472898 -16.928023 15.089900 5.510286 -8.194514 7.007103 0.000000 0.000000 0.000000 2.035950 13.362868 -54.873482 157.708506 -33.304528 113.254594 -70.913021 -51.313712 2.019785 0.000000 0.000000 0.000000 -7.125000 0.000000 0.000000 -53.845992 -32.937071 -103.649543 0.000000 0.000000 0.000000 -18.631948 8.111380 52.706309 -159.650736 -31.060678 -114.289464 76.073012 -108.187619 23.798581 0.000000 0.000000 0.000000 7.125000 0.000000 0.000000 55.494362 34.020393 29.984354
0.085764 18.612152 8.780084 -8.020808 -12.675919 17.933908 0.000000 0.000000 0.000000 -21.155026 -63.055401 16.844140 1.324422 7.288349 20.572507 21.143769 23.604291 -92.423264 3.767091 -11.843704 -35.181440 0.000000 0.000000 0.000000 0.000000 0.000000 0.000000 0.000000 0.000000 0.000000 0.000000 0.000000 0.000000 0.000000 0.000000 0.000000 4.321016 -0.621853 4.970451 5.134615 -0.210945 -3.531699 2.981479 -0.179316 -6.494559 -13.247723 -11.356853 -1.003278 14.492157 -16.993996 14.845653 5.448109 -8.185999 7.071266 0.000000 0.000000 0.000000 15.298228 15.064589 -53.879992 159.367506 -31.396701 114.142598 -68.816869 -42.590607 3.641964 0.000000 0.000000 0.000000 -7.125000 0.000000 0.000000 -52.008265 -30.312975 -101.003640 0.000000 0.000000 0.000000 -34.884921 7.987684 51.564527 -160.218513 -30.378264 -114.579547 78.037177 -105.295139 20.521068 0.000000 0.000000 0.000000 7.125000 0.000000 0.000000 48.875675 25.085190 42.947831
0.082207 18.611141 8.805966 -7.903358 -12.265072 18.149018 0.000000 0.000000 0.000000 -20.190084 -62.823078 15.637014 1.333729 7.312823 20.645640 20.626247 23.700881 -91.324180 3.836728 -11.939835 -35.519627 0.000000 0.000000 0.000000 0.000000 0.000000 0.000000 0.000000 0.000000 0.000000 0.000000 0.000000 0.000000 0.000000 0.000000 0.000000 4.968093 -0.822367 4.712040 4.801434 -0.471172 -3.502733 2.288182 -0.342850 -6.319063 -13.251169 -11.064732 -0.279222 15.445485 -16.667986 13.679819 5.850352 -8.041226 6.608249 0.000000 0.000000 0.000000 12.673676 18.407649 -53.544775 160.027414 -30.609360 114.482587 -66.798315 -40.627227 4.440126 0.000000 0.000000 0.000000 -7.125000 0.000000 0.000000 -49.375438 -26.001170 -95.907349 0.000000 0.000000 0.000000 -25.576302 9.561547 46.153041 -160.994927 -29.424610 -114.966471 80.951366 -114.254997 21.124610 0.000000 0.000000 0.000000 7.125000 0.000000 0.000000 50.373608 27.761061 39.289711
0.081981 18.585394 8.828494 -8.123248 -12.541550 18.187070 0.000000 0.000000 0.000000 -23.468178 -64.951004 19.743951 1.344797 7.341984 20.732496 22.229124 22.828816 -94.794518 3.533705 -11.511924 -34.027365 0.000000 0.000000 0.000000 0.000000 0.000000 0.000000 0.000000 0.000000 0.000000 0.000000 0.000000 0.000000 0.000000 0.000000 0.000000 5.142703 -0.634685 4.976388 4.854616 -0.173454 -3.604238 2.224495 -0.205981 -6.582678 -13.332053 -11.722842 -1.834961 15.004459 -17.466349 14.513040 5.512401 -8.353564 7.239701 0.000000 0.000000 0.000000 -4.907822 18.843091 -47.866962 159.027018 -31.795985 113.963963 -72.908009 -47.090455 1.726082 0.000000 0.000000 0.000000 -7.125000 0.000000 0.000000 -57.123091 -36.573829 -108.394343 0.000000 0.000000 0.000000 -3.974775 8.706022 39.850348 -160.735331 -29.744757 -114.837750 81.106116 -116.580846 22.857646 0.000000 0.000000 0.000000 7.125000 0.000000 0.000000 54.059041 32.522301 32.445699
